<svg width="199" height="132" viewBox="0 0 199 132" fill="none" xmlns="http://www.w3.org/2000/svg">
<path d="M101.674 124.635C99.9698 124.653 98.2985 123.775 96.8549 122.105C95.4113 120.435 94.2551 118.04 93.5213 115.202L93.3436 114.387L83.2152 56.4488C83.0048 55.7959 82.706 55.2551 82.3483 54.8796C81.9905 54.504 81.586 54.3066 81.1744 54.3066C80.7629 54.3066 80.3584 54.504 80.0006 54.8796C79.6429 55.2551 79.3441 55.7959 79.1337 56.4488L68.9299 114.804L68.8276 115.202C68.0527 118.133 66.832 120.584 65.3148 122.255C63.7975 123.926 62.0494 124.746 60.2841 124.613C58.5187 124.48 56.8126 123.401 55.3741 121.507C53.9355 119.613 52.827 116.987 52.1839 113.95L36.784 39.9291C36.6042 39.0827 36.2864 38.3605 35.8745 37.8623C35.4625 37.3641 34.9769 37.1147 34.4848 37.1485C33.9926 37.1824 33.5184 37.4978 33.1277 38.0512C32.737 38.6046 32.4491 39.3685 32.304 40.2372L26.2625 76.835C25.7061 80.291 24.5581 83.3212 22.9903 85.4716C21.4226 87.6219 19.5196 88.7765 17.5664 88.7625H4.00805C3.11693 88.7625 2.2623 88.1091 1.63219 86.9459C1.00207 85.7828 0.648071 84.2052 0.648071 82.5602C0.648071 80.9152 1.00207 79.3377 1.63219 78.1745C2.2623 77.0113 3.11693 76.3579 4.00805 76.3579H17.561C18.069 76.3634 18.5643 76.0652 18.9729 75.5081C19.3815 74.9509 19.6815 74.1646 19.8279 73.2666L25.8802 36.6192C26.4302 33.2816 27.5301 30.3435 29.0268 28.2136C30.5236 26.0838 32.3428 24.8681 34.2313 24.7358C36.1197 24.6035 37.9836 25.5611 39.5635 27.4754C41.1434 29.3897 42.3608 32.1655 43.0462 35.4165L58.4407 109.437C58.6024 110.202 58.8773 110.868 59.234 111.359C59.5907 111.85 60.0149 112.146 60.4583 112.213C60.9017 112.28 61.3465 112.116 61.7418 111.74C62.1372 111.363 62.4673 110.789 62.6946 110.083L72.9253 51.7175L73.0276 51.3199C73.7747 48.4928 74.9371 46.11 76.3823 44.4431C77.8275 42.7763 79.4973 41.8926 81.2014 41.8926C82.9054 41.8926 84.5752 42.7763 86.0204 44.4431C87.4656 46.11 88.628 48.4928 89.3751 51.3199L89.5528 52.135L99.6543 110.043C99.8815 110.749 100.212 111.323 100.607 111.7C101.002 112.077 101.447 112.24 101.891 112.173C102.334 112.106 102.758 111.81 103.115 111.319C103.472 110.828 103.746 110.162 103.908 109.397L124.763 10.6867C125.449 7.43688 126.668 4.66272 128.248 2.7497C129.828 0.83668 131.692 -0.120186 133.58 0.0120762C135.468 0.144338 137.288 1.35916 138.785 3.48772C140.282 5.61628 141.383 8.55285 141.934 11.8894L147.981 48.4871C148.127 49.3887 148.428 50.1788 148.837 50.7395C149.247 51.3001 149.743 51.6014 150.253 51.5982H192.834C193.287 51.5648 193.738 51.7003 194.161 51.9967C194.584 52.2931 194.97 52.7442 195.297 53.323C195.623 53.9017 195.883 54.5963 196.06 55.3648C196.237 56.1334 196.329 56.9602 196.329 57.7956C196.329 58.631 196.237 59.4578 196.06 60.2264C195.883 60.9949 195.623 61.6894 195.297 62.2682C194.97 62.847 194.584 63.2981 194.161 63.5945C193.738 63.8909 193.287 64.0264 192.834 63.993H150.253C148.3 64.0059 146.396 62.851 144.828 60.701C143.259 58.551 142.11 55.5214 141.552 52.0654L135.505 15.5472C135.36 14.6784 135.072 13.9145 134.681 13.3611C134.29 12.8078 133.816 12.4923 133.324 12.4585C132.832 12.4246 132.346 12.674 131.934 13.1722C131.522 13.6704 131.205 14.3927 131.025 15.239L110.165 113.95C109.537 116.998 108.436 119.636 106.999 121.533C105.562 123.431 103.854 124.503 102.088 124.615L101.674 124.635Z" fill="#0B0C10"/>
<path d="M139.966 124.401H131.1L129.785 131.821H121.032L130.762 82.7224H140.379L150.072 131.821H141.281L139.966 124.401ZM137.937 112.82L135.533 99.1581L133.129 112.82H137.937Z" fill="#0B0C10"/>
<path d="M178.753 82.7224L169.812 131.821H159.03L150.088 82.7224H158.954L164.439 116.495L169.887 82.7224H178.753Z" fill="#0B0C10"/>
<path d="M188.96 94.9972V101.031H197.225V112.612H188.96V119.547H198.352V131.821H180.62V82.7224H198.352V94.9972H188.96Z" fill="#0B0C10"/>
</svg>
