<?xml version="1.0" encoding="utf-8"?>
<!-- Generator: Adobe Illustrator 18.0.0, SVG Export Plug-In . SVG Version: 6.00 Build 0)  -->
<!DOCTYPE svg PUBLIC "-//W3C//DTD SVG 1.1//EN" "http://www.w3.org/Graphics/SVG/1.1/DTD/svg11.dtd">
<svg version="1.1" id="Calque_2_-_copie" xmlns="http://www.w3.org/2000/svg" xmlns:xlink="http://www.w3.org/1999/xlink" x="0px"
	 y="0px" viewBox="0 0 125.1 73.9" enable-background="new 0 0 125.1 73.9" xml:space="preserve">
<g>
	<path fill="#FFDA8A" d="M64.5,72.6c-3.4,0-4.1-3.9-4.9-8.3c-0.1-0.7-0.3-1.5-0.4-2.2c-0.8-4-3.4-17.7-4.8-26.4
		c-0.5-3.4-1.1-5.5-2-5.5c-1,0-1.5,2.1-2,5.5C49,44.3,46.4,58,45.6,62c-0.1,0.8-0.3,1.5-0.4,2.2c-0.8,4.5-1.5,8.3-4.9,8.3
		C37,72.6,36.2,69,35,64c-0.2-0.8-0.4-1.6-0.6-2.4c-1.5-6.1-3-13.9-4.4-21.4c-1-5.4-2-10.6-2.9-14.5c-0.2-0.7-0.3-1.3-0.4-2
		c-0.8-3.7-1.1-4.3-2-4.3c-1.2,0-1.8,0.8-2.4,5.4c-0.7,5.8-2,13.6-2.8,18.2c-0.9,5.5-3,7.9-6.7,7.9h-7c-0.8,0-1.5-0.7-1.5-1.5
		s0.7-1.5,1.5-1.5h7c1.2,0,2.9,0,3.8-5.4c0.8-4.6,2-12.3,2.8-18.1c0.4-3.4,1-8,5.4-8c3.6,0,4.3,3.3,5,6.7c0.1,0.6,0.3,1.2,0.4,1.9
		c0.9,4,1.9,9.2,2.9,14.6c1.4,7.5,2.9,15.3,4.4,21.3c0.2,0.9,0.4,1.7,0.6,2.5c0.7,3.1,1.5,6.2,2.4,6.2c0.9,0,1.4-3.1,1.9-5.9
		c0.1-0.7,0.3-1.5,0.4-2.3c0.8-4,3.4-17.7,4.7-26.3c0.6-3.6,1.3-8,5-8c3.7,0,4.4,4.5,5,8c1.4,8.7,4,22.3,4.7,26.3
		c0.2,0.8,0.3,1.6,0.4,2.3c0.5,2.7,1,5.9,1.9,5.9c0.9,0,1.7-3.2,2.4-6.2c0.2-0.8,0.4-1.6,0.6-2.5c1.5-6.1,4.1-19.5,6.5-31.3
		c1.6-8,3.1-15.6,3.9-19.5c0.1-0.7,0.3-1.3,0.4-1.9c0.7-3.5,1.4-6.7,5-6.7c4.4,0,4.9,4.6,5.4,8c0.7,5.3,1.7,11.8,2.8,18.1
		c0.9,5.4,2.6,5.4,3.8,5.4h24.1c0.8,0,1.5,0.7,1.5,1.5s-0.7,1.5-1.5,1.5H95.1c-3.8,0-5.8-2.4-6.7-7.9c-1-6.3-2.1-12.8-2.8-18.2
		c-0.6-4.6-1.2-5.4-2.4-5.4c-1,0-1.3,0.6-2,4.3c-0.1,0.6-0.3,1.3-0.4,2c-0.9,3.8-2.3,11.4-3.9,19.4c-2.3,11.8-5,25.3-6.5,31.5
		c-0.2,0.9-0.4,1.7-0.6,2.4C68.7,69,67.8,72.6,64.5,72.6z"/>
</g>
</svg>
