<?xml version="1.0" encoding="utf-8"?>
<!-- Generator: Adobe Illustrator 18.0.0, SVG Export Plug-In . SVG Version: 6.00 Build 0)  -->
<!DOCTYPE svg PUBLIC "-//W3C//DTD SVG 1.1//EN" "http://www.w3.org/Graphics/SVG/1.1/DTD/svg11.dtd">
<svg version="1.1" id="Calque_2_-_copie" xmlns="http://www.w3.org/2000/svg" xmlns:xlink="http://www.w3.org/1999/xlink" x="0px"
	 y="0px" viewBox="0 0 125.1 73.9" enable-background="new 0 0 125.1 73.9" xml:space="preserve">
<g>
	<path d="M61.5,72.6c-3.4,0-4.1-3.9-4.9-8.3c-0.1-0.7-0.3-1.5-0.4-2.2c-0.8-4-3.4-17.7-4.8-26.4c-0.5-3.4-1.1-5.5-2-5.5
		c-1,0-1.5,2.1-2,5.5c-1.4,8.7-4,22.4-4.8,26.4c-0.1,0.8-0.3,1.5-0.4,2.2c-0.8,4.5-1.5,8.3-4.9,8.3c-3.3,0-4.2-3.6-5.3-8.6
		c-0.2-0.8-0.4-1.6-0.6-2.4c-1.5-6.1-3-13.9-4.4-21.4c-1-5.4-2-10.6-2.9-14.5c-0.2-0.7-0.3-1.3-0.4-2c-0.8-3.7-1.1-4.3-2-4.3
		c-1.2,0-1.8,0.8-2.4,5.4c-0.7,5.8-2,13.6-2.8,18.2c-0.9,5.5-3,7.9-6.7,7.9h-7c-0.8,0-1.5-0.7-1.5-1.5s0.7-1.5,1.5-1.5h7
		c1.2,0,2.9,0,3.8-5.4c0.8-4.6,2-12.3,2.8-18.1c0.4-3.4,1-8,5.4-8c3.6,0,4.3,3.3,5,6.7c0.1,0.6,0.3,1.2,0.4,1.9
		c0.9,4,1.9,9.2,2.9,14.6c1.4,7.5,2.9,15.3,4.4,21.3c0.2,0.9,0.4,1.7,0.6,2.5c0.7,3.1,1.5,6.2,2.4,6.2c0.9,0,1.4-3.1,1.9-5.9
		c0.1-0.7,0.3-1.5,0.4-2.3c0.8-4,3.4-17.7,4.7-26.3c0.6-3.6,1.3-8,5-8c3.7,0,4.4,4.5,5,8c1.4,8.7,4,22.3,4.7,26.3
		c0.2,0.8,0.3,1.6,0.4,2.3c0.5,2.7,1,5.9,1.9,5.9c0.9,0,1.7-3.2,2.4-6.2c0.2-0.8,0.4-1.6,0.6-2.5c1.5-6.1,4.1-19.5,6.5-31.3
		c1.6-8,3.1-15.6,3.9-19.5c0.1-0.7,0.3-1.3,0.4-1.9c0.7-3.5,1.4-6.7,5-6.7c4.4,0,4.9,4.6,5.4,8c0.7,5.3,1.7,11.8,2.8,18.1
		c0.9,5.4,2.6,5.4,3.8,5.4h24.1c0.8,0,1.5,0.7,1.5,1.5s-0.7,1.5-1.5,1.5H92.2c-3.8,0-5.8-2.4-6.7-7.9c-1-6.3-2.1-12.8-2.8-18.2
		c-0.6-4.6-1.2-5.4-2.4-5.4c-1,0-1.3,0.6-2,4.3c-0.1,0.6-0.3,1.3-0.4,2c-0.9,3.8-2.3,11.4-3.9,19.4c-2.3,11.8-5,25.3-6.5,31.5
		c-0.2,0.9-0.4,1.7-0.6,2.4C65.7,69,64.9,72.6,61.5,72.6z"/>
</g>
<g>
	<path d="M87.5,72.6c-0.7,0-1.4-0.5-1.5-1.3c-0.1-0.8-3.1-19.6-3.3-20.8L82.6,50c-0.3-2-0.6-3-0.8-3.4c-0.2,0.5-0.5,1.4-0.8,3.4
		L81,50.5c-0.2,1.2-3.2,20-3.3,20.8c-0.1,0.8-0.9,1.4-1.7,1.2c-0.8-0.1-1.4-0.9-1.2-1.7c0-0.2,3.1-19.6,3.3-20.8l0.1-0.4
		c0.3-2.2,0.8-6.3,3.7-6.3c2.9,0,3.5,4.1,3.7,6.3l0.1,0.4c0.2,1.2,3.3,20.6,3.3,20.8c0.1,0.8-0.4,1.6-1.2,1.7
		C87.6,72.6,87.6,72.6,87.5,72.6z"/>
</g>
<g>
	<path d="M99,72.6c-2.9,0-3.5-4.1-3.7-6.3l-0.1-0.4C95,64.6,91.9,45.2,91.9,45c-0.1-0.8,0.4-1.6,1.2-1.7c0.8-0.1,1.6,0.4,1.7,1.2
		c0.1,0.8,3.1,19.6,3.3,20.8l0.1,0.5c0.3,2,0.6,3,0.8,3.4c0.2-0.5,0.5-1.4,0.8-3.4l0.1-0.5c0.2-1.2,3.2-20,3.3-20.8
		c0.1-0.8,0.9-1.4,1.7-1.2c0.8,0.1,1.4,0.9,1.2,1.7c0,0.2-3.1,19.6-3.3,20.8l-0.1,0.4C102.5,68.4,101.9,72.6,99,72.6z"/>
</g>
<g>
	<path d="M122.2,72.5c-0.2,0-0.5-0.1-0.7-0.2c-0.9-0.5-2.1-1-3.4-1.6c-1.8-0.8-3.7-1.6-5.2-2.5c-0.2-0.1-0.4-0.2-0.6-0.3
		c-1.1-0.6-2.5-1.4-2.5-3.4c0-2.2,1.6-2.8,2.6-3.3c0.2-0.1,0.3-0.1,0.5-0.2c1-0.4,4.2-1.9,6.3-2.7c0.4-0.2,0.6-0.2,0.6-0.3
		c0,0,0-0.1,0-0.3c0-0.2,0-0.3,0-0.3c0,0-0.1-0.1-0.6-0.3c-2.1-0.8-5.4-2.2-6.3-2.7c-0.2-0.1-0.3-0.1-0.5-0.2
		c-1-0.4-2.6-1.1-2.6-3.3c0-2.1,1.4-2.8,2.5-3.4c0.2-0.1,0.4-0.2,0.5-0.3c1.5-0.9,3.4-1.7,5.2-2.5c1.3-0.6,2.5-1.1,3.4-1.6
		c0.7-0.4,1.6-0.1,2,0.6c0.4,0.7,0.1,1.6-0.6,2c-1,0.5-2.2,1.1-3.5,1.6c-1.8,0.8-3.6,1.6-4.9,2.4c-0.2,0.1-0.4,0.2-0.6,0.3
		c-1,0.5-1,0.6-1,0.8c0,0.1,0,0.2,0,0.2c0.1,0,0.5,0.2,0.7,0.3c0.2,0.1,0.4,0.2,0.6,0.2c0.9,0.4,4.1,1.8,6.1,2.6
		c0.8,0.3,2.6,0.9,2.6,3.4c0,2.4-1.7,3-2.6,3.4c-2,0.7-5.2,2.2-6.1,2.6c-0.2,0.1-0.4,0.2-0.6,0.2c-0.3,0.1-0.6,0.3-0.8,0.4
		c0,0,0,0.1,0,0.1c0,0.3,0,0.3,1,0.8c0.2,0.1,0.4,0.2,0.6,0.3c1.4,0.8,3.2,1.6,4.9,2.4c1.3,0.6,2.5,1.1,3.5,1.6c0.7,0.4,1,1.3,0.6,2
		C123.3,72.3,122.8,72.5,122.2,72.5z"/>
</g>
</svg>
