<svg width="176" height="64" viewBox="0 0 176 64" fill="none" xmlns="http://www.w3.org/2000/svg">
<path d="M89.4807 59.8024C87.9717 59.8111 86.4914 59.39 85.2128 58.5886C83.9342 57.7871 82.91 56.6383 82.2601 55.2764L82.1027 54.8853L73.1317 27.0853C72.9454 26.7721 72.6808 26.5126 72.3639 26.3324C72.047 26.1522 71.6887 26.0575 71.3242 26.0575C70.9597 26.0575 70.6014 26.1522 70.2845 26.3324C69.9676 26.5126 69.703 26.7721 69.5167 27.0853L60.4789 55.0856L60.3883 55.2764C59.7019 56.6828 58.6207 57.8587 57.2769 58.6606C55.9331 59.4625 54.3847 59.8556 52.8211 59.7919C51.2575 59.7282 49.7463 59.2104 48.4722 58.3017C47.198 57.3931 46.2162 56.133 45.6465 54.6755L32.0065 19.1588C31.8473 18.7527 31.5658 18.4062 31.2009 18.1671C30.836 17.9281 30.4059 17.8084 29.97 17.8247C29.5341 17.8409 29.114 17.9923 28.768 18.2578C28.4219 18.5233 28.167 18.8899 28.0384 19.3067L22.6873 36.8671C22.1946 38.5254 21.1777 39.9793 19.7891 41.0111C18.4005 42.0429 16.7149 42.5969 14.985 42.5902H2.97601C2.18673 42.5902 1.42977 42.2766 0.871654 41.7185C0.313543 41.1604 0 40.4035 0 39.6142C0 38.8249 0.313543 38.0679 0.871654 37.5098C1.42977 36.9517 2.18673 36.6382 2.97601 36.6382H14.9802C15.4302 36.6408 15.8689 36.4977 16.2308 36.2304C16.5927 35.963 16.8584 35.5858 16.9881 35.1549L22.3487 17.5707C22.8358 15.9692 23.81 14.5595 25.1358 13.5375C26.4615 12.5156 28.0728 11.9323 29.7455 11.8688C31.4181 11.8053 33.069 12.2648 34.4684 13.1833C35.8677 14.1018 36.946 15.4337 37.5531 16.9936L51.1884 52.5102C51.3316 52.8774 51.575 53.1969 51.891 53.4324C52.2069 53.6679 52.5827 53.8099 52.9754 53.8422C53.3682 53.8745 53.7621 53.7958 54.1123 53.6151C54.4625 53.4345 54.7549 53.159 54.9561 52.8202L64.0177 24.8152L64.1083 24.6244C64.7701 23.2679 65.7997 22.1246 67.0797 21.3248C68.3597 20.525 69.8387 20.101 71.348 20.101C72.8574 20.101 74.3364 20.525 75.6164 21.3248C76.8964 22.1246 77.926 23.2679 78.5878 24.6244L78.7451 25.0155L87.6923 52.8012C87.8935 53.1399 88.1859 53.4154 88.5361 53.5961C88.8863 53.7767 89.2802 53.8554 89.673 53.8231C90.0657 53.7908 90.4415 53.6488 90.7574 53.4133C91.0734 53.1778 91.3168 52.8583 91.46 52.4912L109.931 5.12769C110.54 3.56838 111.619 2.23728 113.018 1.31937C114.418 0.401457 116.069 -0.0576677 117.741 0.00579442C119.414 0.0692565 121.025 0.652153 122.351 1.67348C123.677 2.69481 124.652 4.10384 125.14 5.70477L130.496 23.2652C130.626 23.6978 130.892 24.0769 131.255 24.3459C131.617 24.6149 132.057 24.7595 132.509 24.7579H170.224C170.625 24.7419 171.024 24.8069 171.399 24.9491C171.774 25.0914 172.116 25.3078 172.405 25.5855C172.694 25.8632 172.924 26.1965 173.081 26.5652C173.238 26.934 173.319 27.3307 173.319 27.7316C173.319 28.1324 173.238 28.5291 173.081 28.8979C172.924 29.2667 172.694 29.5999 172.405 29.8776C172.116 30.1553 171.774 30.3718 171.399 30.514C171.024 30.6562 170.625 30.7212 170.224 30.7052H132.509C130.779 30.7114 129.093 30.1573 127.703 29.1256C126.314 28.094 125.296 26.6404 124.802 24.9821L119.446 7.45986C119.317 7.04304 119.062 6.67649 118.716 6.41096C118.37 6.14544 117.95 5.99408 117.514 5.97784C117.079 5.9616 116.648 6.08128 116.284 6.32031C115.919 6.55935 115.637 6.90591 115.478 7.31201L97.0019 54.6755C96.4458 56.1381 95.4703 57.404 94.1976 58.3144C92.9249 59.2248 91.4118 59.7391 89.848 59.7929L89.4807 59.8024Z" fill="#0B0C10"/>
<path d="M123.397 59.6903H115.544L114.38 63.2508H106.627L115.245 39.692H123.763L132.348 63.2508H124.562L123.397 59.6903ZM121.6 54.1334L119.471 47.5782L117.341 54.1334H121.6Z" fill="#0B0C10"/>
<path d="M157.752 39.692L149.832 63.2508H140.282L132.363 39.692H140.216L145.074 55.897L149.899 39.692H157.752Z" fill="#0B0C10"/>
<path d="M166.792 45.5817V48.4766H174.113V54.0336H166.792V57.3611H175.111V63.2508H159.405V39.692H175.111V45.5817H166.792Z" fill="#0B0C10"/>
</svg>
